solid exported
	facet normal 0.07411551121999424 -0.7051619994712558 0.705161999471256
		outer loop
			vertex 0 -19.999999999999996 15.000000000000004
			vertex 0 -50 -14.99999999999999
			vertex 4.158233642578125 -19.562952041625973 15.000000000000004
		endloop
	endfacet
	facet normal 0.07411557602370573 -0.7051620005489813 0.705161991582383
		outer loop
			vertex 0 -50 -14.99999999999999
			vertex 10.395584106445312 -48.907379150390625 -14.99999999999999
			vertex 4.158233642578125 -19.562952041625973 15.000000000000004
		endloop
	endfacet
	facet normal 0.21910744055457224 -0.6743430194416459 0.705161982542982
		outer loop
			vertex 4.158233642578125 -19.562952041625973 15.000000000000004
			vertex 10.395584106445312 -48.907379150390625 -14.99999999999999
			vertex 8.134733200073242 -18.270908355712887 15.000000000000004
		endloop
	endfacet
	facet normal 0.21910727782536307 -0.6743430512122097 0.7051620027240311
		outer loop
			vertex 10.395584106445312 -48.907379150390625 -14.99999999999999
			vertex 20.33683204650879 -45.67727279663086 -14.99999999999999
			vertex 8.134733200073242 -18.270908355712887 15.000000000000004
		endloop
	endfacet
	facet normal 0.35452305554893054 -0.6140520714120278 0.7051620073989012
		outer loop
			vertex 8.134733200073242 -18.270908355712887 15.000000000000004
			vertex 20.33683204650879 -45.67727279663086 -14.99999999999999
			vertex 11.755704879760742 -16.18033981323242 15.000000000000004
		endloop
	endfacet
	facet normal 0.3545229955809417 -0.6140520969252745 0.7051620153312209
		outer loop
			vertex 20.33683204650879 -45.67727279663086 -14.99999999999999
			vertex 29.389263153076172 -40.45085144042969 -14.999999999999991
			vertex 11.755704879760742 -16.18033981323242 15.000000000000004
		endloop
	endfacet
	facet normal 0.4744444507011411 -0.5269240752342853 0.7051620254504533
		outer loop
			vertex 11.755704879760742 -16.18033981323242 15.000000000000004
			vertex 29.389263153076172 -40.45085144042969 -14.999999999999991
			vertex 14.862896919250488 -13.382612228393551 15.000000000000004
		endloop
	endfacet
	facet normal 0.4744445439004117 -0.5269240098609184 0.7051620115939466
		outer loop
			vertex 29.389263153076172 -40.45085144042969 -14.999999999999991
			vertex 37.15724182128906 -33.4565315246582 -14.999999999999993
			vertex 14.862896919250488 -13.382612228393551 15.000000000000004
		endloop
	endfacet
	facet normal 0.5736304072368955 -0.41676695370487815 0.7051620113085996
		outer loop
			vertex 14.862896919250488 -13.382612228393551 15.000000000000004
			vertex 37.15724182128906 -33.4565315246582 -14.999999999999993
			vertex 17.32050895690918 -9.999999999999996 15.000000000000002
		endloop
	endfacet
	facet normal 0.5736305231519255 -0.4167668291956456 0.7051619906026245
		outer loop
			vertex 37.15724182128906 -33.4565315246582 -14.999999999999993
			vertex 43.30126953125 -25.000000000000004 -14.999999999999995
			vertex 17.32050895690918 -9.999999999999996 15.000000000000002
		endloop
	endfacet
	facet normal 0.6477460916906896 -0.2883948640532637 0.7051619693993262
		outer loop
			vertex 17.32050895690918 -9.999999999999996 15.000000000000002
			vertex 43.30126953125 -25.000000000000004 -14.999999999999995
			vertex 19.021129608154297 -6.180339813232418 15.000000000000002
		endloop
	endfacet
	facet normal 0.6477459385858906 -0.2883951193388387 0.7051620056320538
		outer loop
			vertex 43.30126953125 -25.000000000000004 -14.999999999999995
			vertex 47.552825927734375 -15.450849533081058 -14.999999999999996
			vertex 19.021129608154297 -6.180339813232418 15.000000000000002
		endloop
	endfacet
	facet normal 0.6935518195501476 -0.14741914347091112 0.7051620166578618
		outer loop
			vertex 19.021129608154297 -6.180339813232418 15.000000000000002
			vertex 47.552825927734375 -15.450849533081058 -14.999999999999996
			vertex 19.890438079833984 -2.0905692577362025 15
		endloop
	endfacet
	facet normal 0.6935519018154279 -0.14741890391399276 0.7051619858280792
		outer loop
			vertex 47.552825927734375 -15.450849533081058 -14.999999999999996
			vertex 49.72609329223633 -5.226423263549808 -14.999999999999998
			vertex 19.890438079833984 -2.0905692577362025 15
		endloop
	endfacet
	facet normal 0.7090462483069868 1.5657741321384072e-16 0.7051619798044892
		outer loop
			vertex 19.890438079833984 -2.0905692577362025 15
			vertex 49.72609329223633 -5.226423263549808 -14.999999999999998
			vertex 19.890438079833984 2.0905692577362096 15
		endloop
	endfacet
	facet normal 0.7090462483069868 1.5657741321384072e-16 0.7051619798044892
		outer loop
			vertex 49.72609329223633 -5.226423263549808 -14.999999999999998
			vertex 49.72609329223633 5.226423263549801 -15.000000000000002
			vertex 19.890438079833984 2.0905692577362096 15
		endloop
	endfacet
	facet normal 0.6935518623942646 0.14741915257771915 0.7051619726153093
		outer loop
			vertex 19.890438079833984 2.0905692577362096 15
			vertex 49.72609329223633 5.226423263549801 -15.000000000000002
			vertex 19.021129608154297 6.180339813232425 14.999999999999998
		endloop
	endfacet
	facet normal 0.6935518846777783 0.14741890027127577 0.7051620034451017
		outer loop
			vertex 49.72609329223633 5.226423263549801 -15.000000000000002
			vertex 47.552825927734375 15.450849533081051 -15.000000000000004
			vertex 19.021129608154297 6.180339813232425 14.999999999999998
		endloop
	endfacet
	facet normal 0.6477460446636865 0.2883948431155133 0.7051620211603346
		outer loop
			vertex 19.021129608154297 6.180339813232425 14.999999999999998
			vertex 47.552825927734375 15.450849533081051 -15.000000000000004
			vertex 17.32050895690918 10.000000000000004 14.999999999999998
		endloop
	endfacet
	facet normal 0.647745957396685 0.28839512771394565 0.705161984927654
		outer loop
			vertex 47.552825927734375 15.450849533081051 -15.000000000000004
			vertex 43.30126953125 24.999999999999996 -15.000000000000005
			vertex 17.32050895690918 10.000000000000004 14.999999999999998
		endloop
	endfacet
	facet normal 0.5736304310364863 0.41676697099629606 0.7051619817286435
		outer loop
			vertex 17.32050895690918 10.000000000000004 14.999999999999998
			vertex 43.30126953125 24.999999999999996 -15.000000000000005
			vertex 14.862896919250488 13.382612228393558 14.999999999999996
		endloop
	endfacet
	facet normal 0.5736305136320871 0.4167668222790808 0.7051620024346074
		outer loop
			vertex 43.30126953125 24.999999999999996 -15.000000000000005
			vertex 37.15724182128906 33.4565315246582 -15.000000000000007
			vertex 14.862896919250488 13.382612228393558 14.999999999999996
		endloop
	endfacet
	facet normal 0.47444446387402806 0.5269240898642622 0.7051620056554418
		outer loop
			vertex 14.862896919250488 13.382612228393558 14.999999999999996
			vertex 37.15724182128906 33.4565315246582 -15.000000000000007
			vertex 11.755704879760742 16.180339813232425 14.999999999999996
		endloop
	endfacet
	facet normal 0.4744445386312558 0.5269240040089286 0.7051620195119512
		outer loop
			vertex 37.15724182128906 33.4565315246582 -15.000000000000007
			vertex 29.389263153076172 40.45085144042969 -15.000000000000009
			vertex 11.755704879760742 16.180339813232425 14.999999999999996
		endloop
	endfacet
	facet normal 0.3545230499140242 0.6140520616520819 0.7051620187307921
		outer loop
			vertex 11.755704879760742 16.180339813232425 14.999999999999996
			vertex 29.389263153076172 40.45085144042969 -15.000000000000009
			vertex 8.134733200073242 18.270908355712894 14.999999999999996
		endloop
	endfacet
	facet normal 0.3545229978349035 0.6140521008292528 0.705162010798465
		outer loop
			vertex 29.389263153076172 40.45085144042969 -15.000000000000009
			vertex 20.33683204650879 45.67727279663086 -15.00000000000001
			vertex 8.134733200073242 18.270908355712894 14.999999999999996
		endloop
	endfacet
	facet normal 0.21910743169439306 0.6743429921728326 0.7051620113730448
		outer loop
			vertex 8.134733200073242 18.270908355712894 14.999999999999996
			vertex 20.33683204650879 45.67727279663086 -15.00000000000001
			vertex 4.158233642578125 19.56295204162598 14.999999999999996
		endloop
	endfacet
	facet normal 0.21910728136943275 0.674343062119738 0.7051619911920036
		outer loop
			vertex 20.33683204650879 45.67727279663086 -15.00000000000001
			vertex 10.395584106445312 48.907379150390625 -15.00000000000001
			vertex 4.158233642578125 19.56295204162598 14.999999999999996
		endloop
	endfacet
	facet normal 0.07411551239155756 0.7051620106179362 0.7051619882014393
		outer loop
			vertex 4.158233642578125 19.56295204162598 14.999999999999996
			vertex 10.395584106445312 48.907379150390625 -15.00000000000001
			vertex 2.4492935992912173e-15 20.000000000000004 14.999999999999996
		endloop
	endfacet
	facet normal 0.07411557555508007 0.7051619960903096 0.7051619960903094
		outer loop
			vertex 10.395584106445312 48.907379150390625 -15.00000000000001
			vertex 6.1232337864698064e-15 50 -15.00000000000001
			vertex 2.4492935992912173e-15 20.000000000000004 14.999999999999996
		endloop
	endfacet
	facet normal -0.07411551121999421 0.705161999471256 0.7051619994712558
		outer loop
			vertex 2.4492935992912173e-15 20.000000000000004 14.999999999999996
			vertex 6.1232337864698064e-15 50 -15.00000000000001
			vertex -4.158233642578125 19.56295204162598 14.999999999999996
		endloop
	endfacet
	facet normal -0.07411557602370569 0.7051620005489815 0.7051619915823828
		outer loop
			vertex 6.1232337864698064e-15 50 -15.00000000000001
			vertex -10.395584106445312 48.907379150390625 -15.00000000000001
			vertex -4.158233642578125 19.56295204162598 14.999999999999996
		endloop
	endfacet
	facet normal -0.21910744055457218 0.674343019441646 0.7051619825429817
		outer loop
			vertex -4.158233642578125 19.56295204162598 14.999999999999996
			vertex -10.395584106445312 48.907379150390625 -15.00000000000001
			vertex -8.134733200073242 18.270908355712894 14.999999999999996
		endloop
	endfacet
	facet normal -0.21910727782536307 0.6743430512122099 0.7051620027240308
		outer loop
			vertex -10.395584106445312 48.907379150390625 -15.00000000000001
			vertex -20.33683204650879 45.67727279663086 -15.00000000000001
			vertex -8.134733200073242 18.270908355712894 14.999999999999996
		endloop
	endfacet
	facet normal -0.35452305554893054 0.614052071412028 0.705162007398901
		outer loop
			vertex -8.134733200073242 18.270908355712894 14.999999999999996
			vertex -20.33683204650879 45.67727279663086 -15.00000000000001
			vertex -11.755704879760742 16.180339813232425 14.999999999999996
		endloop
	endfacet
	facet normal -0.3545229955809417 0.6140520969252747 0.7051620153312207
		outer loop
			vertex -20.33683204650879 45.67727279663086 -15.00000000000001
			vertex -29.389263153076172 40.45085144042969 -15.000000000000009
			vertex -11.755704879760742 16.180339813232425 14.999999999999996
		endloop
	endfacet
	facet normal -0.4744444507011412 0.5269240752342856 0.7051620254504531
		outer loop
			vertex -11.755704879760742 16.180339813232425 14.999999999999996
			vertex -29.389263153076172 40.45085144042969 -15.000000000000009
			vertex -14.862896919250488 13.382612228393558 14.999999999999996
		endloop
	endfacet
	facet normal -0.4744445439004117 0.5269240098609186 0.7051620115939464
		outer loop
			vertex -29.389263153076172 40.45085144042969 -15.000000000000009
			vertex -37.15724182128906 33.4565315246582 -15.000000000000007
			vertex -14.862896919250488 13.382612228393558 14.999999999999996
		endloop
	endfacet
	facet normal -0.5736304072368955 0.4167669537048785 0.7051620113085993
		outer loop
			vertex -14.862896919250488 13.382612228393558 14.999999999999996
			vertex -37.15724182128906 33.4565315246582 -15.000000000000007
			vertex -17.32050895690918 10.000000000000004 14.999999999999998
		endloop
	endfacet
	facet normal -0.5736305231519255 0.41676682919564595 0.7051619906026243
		outer loop
			vertex -37.15724182128906 33.4565315246582 -15.000000000000007
			vertex -43.30126953125 24.999999999999996 -15.000000000000005
			vertex -17.32050895690918 10.000000000000004 14.999999999999998
		endloop
	endfacet
	facet normal -0.6477460916906898 0.2883948640532641 0.7051619693993261
		outer loop
			vertex -17.32050895690918 10.000000000000004 14.999999999999998
			vertex -43.30126953125 24.999999999999996 -15.000000000000005
			vertex -19.021129608154297 6.180339813232425 14.999999999999998
		endloop
	endfacet
	facet normal -0.6477459385858906 0.28839511933883905 0.7051620056320536
		outer loop
			vertex -43.30126953125 24.999999999999996 -15.000000000000005
			vertex -47.552825927734375 15.450849533081051 -15.000000000000004
			vertex -19.021129608154297 6.180339813232425 14.999999999999998
		endloop
	endfacet
	facet normal -0.6935518195501476 0.14741914347091145 0.7051620166578618
		outer loop
			vertex -19.021129608154297 6.180339813232425 14.999999999999998
			vertex -47.552825927734375 15.450849533081051 -15.000000000000004
			vertex -19.890438079833984 2.0905692577362096 15
		endloop
	endfacet
	facet normal -0.6935519018154278 0.14741890391399307 0.7051619858280791
		outer loop
			vertex -47.552825927734375 15.450849533081051 -15.000000000000004
			vertex -49.72609329223633 5.226423263549801 -15.000000000000002
			vertex -19.890438079833984 2.0905692577362096 15
		endloop
	endfacet
	facet normal -0.7090462483069868 1.5657741321384072e-16 0.7051619798044892
		outer loop
			vertex -19.890438079833984 2.0905692577362096 15
			vertex -49.72609329223633 5.226423263549801 -15.000000000000002
			vertex -19.890438079833984 -2.0905692577362025 15
		endloop
	endfacet
	facet normal -0.7090462483069868 1.5657741321384072e-16 0.7051619798044892
		outer loop
			vertex -49.72609329223633 5.226423263549801 -15.000000000000002
			vertex -49.72609329223633 -5.226423263549808 -14.999999999999998
			vertex -19.890438079833984 -2.0905692577362025 15
		endloop
	endfacet
	facet normal -0.6935518623942646 -0.14741915257771881 0.7051619726153093
		outer loop
			vertex -19.890438079833984 -2.0905692577362025 15
			vertex -49.72609329223633 -5.226423263549808 -14.999999999999998
			vertex -19.021129608154297 -6.180339813232418 15.000000000000002
		endloop
	endfacet
	facet normal -0.6935518846777783 -0.14741890027127544 0.7051620034451017
		outer loop
			vertex -49.72609329223633 -5.226423263549808 -14.999999999999998
			vertex -47.552825927734375 -15.450849533081058 -14.999999999999996
			vertex -19.021129608154297 -6.180339813232418 15.000000000000002
		endloop
	endfacet
	facet normal -0.6477460446636865 -0.28839484311551294 0.7051620211603348
		outer loop
			vertex -19.021129608154297 -6.180339813232418 15.000000000000002
			vertex -47.552825927734375 -15.450849533081058 -14.999999999999996
			vertex -17.32050895690918 -9.999999999999996 15.000000000000002
		endloop
	endfacet
	facet normal -0.647745957396685 -0.2883951277139453 0.7051619849276543
		outer loop
			vertex -47.552825927734375 -15.450849533081058 -14.999999999999996
			vertex -43.30126953125 -25.000000000000004 -14.999999999999995
			vertex -17.32050895690918 -9.999999999999996 15.000000000000002
		endloop
	endfacet
	facet normal -0.5736304310364863 -0.4167669709962957 0.7051619817286437
		outer loop
			vertex -17.32050895690918 -9.999999999999996 15.000000000000002
			vertex -43.30126953125 -25.000000000000004 -14.999999999999995
			vertex -14.862896919250488 -13.382612228393551 15.000000000000004
		endloop
	endfacet
	facet normal -0.5736305136320871 -0.41676682227908046 0.7051620024346076
		outer loop
			vertex -43.30126953125 -25.000000000000004 -14.999999999999995
			vertex -37.15724182128906 -33.4565315246582 -14.999999999999993
			vertex -14.862896919250488 -13.382612228393551 15.000000000000004
		endloop
	endfacet
	facet normal -0.47444446387402794 -0.5269240898642619 0.705162005655442
		outer loop
			vertex -14.862896919250488 -13.382612228393551 15.000000000000004
			vertex -37.15724182128906 -33.4565315246582 -14.999999999999993
			vertex -11.755704879760742 -16.18033981323242 15.000000000000004
		endloop
	endfacet
	facet normal -0.4744445386312558 -0.5269240040089284 0.7051620195119515
		outer loop
			vertex -37.15724182128906 -33.4565315246582 -14.999999999999993
			vertex -29.389263153076172 -40.45085144042969 -14.999999999999991
			vertex -11.755704879760742 -16.18033981323242 15.000000000000004
		endloop
	endfacet
	facet normal -0.3545230499140242 -0.6140520616520817 0.7051620187307923
		outer loop
			vertex -11.755704879760742 -16.18033981323242 15.000000000000004
			vertex -29.389263153076172 -40.45085144042969 -14.999999999999991
			vertex -8.134733200073242 -18.270908355712887 15.000000000000004
		endloop
	endfacet
	facet normal -0.3545229978349035 -0.6140521008292525 0.7051620107984652
		outer loop
			vertex -29.389263153076172 -40.45085144042969 -14.999999999999991
			vertex -20.33683204650879 -45.67727279663086 -14.99999999999999
			vertex -8.134733200073242 -18.270908355712887 15.000000000000004
		endloop
	endfacet
	facet normal -0.21910743169439306 -0.6743429921728323 0.705162011373045
		outer loop
			vertex -8.134733200073242 -18.270908355712887 15.000000000000004
			vertex -20.33683204650879 -45.67727279663086 -14.99999999999999
			vertex -4.158233642578125 -19.562952041625973 15.000000000000004
		endloop
	endfacet
	facet normal -0.21910728136943275 -0.6743430621197378 0.7051619911920038
		outer loop
			vertex -20.33683204650879 -45.67727279663086 -14.99999999999999
			vertex -10.395584106445312 -48.907379150390625 -14.99999999999999
			vertex -4.158233642578125 -19.562952041625973 15.000000000000004
		endloop
	endfacet
	facet normal -0.07411551239155763 -0.7051620106179359 0.7051619882014395
		outer loop
			vertex -4.158233642578125 -19.562952041625973 15.000000000000004
			vertex -10.395584106445312 -48.907379150390625 -14.99999999999999
			vertex -4.8985871985824346e-15 -19.999999999999996 15.000000000000004
		endloop
	endfacet
	facet normal -0.07411557555508012 -0.7051619960903094 0.7051619960903096
		outer loop
			vertex -10.395584106445312 -48.907379150390625 -14.99999999999999
			vertex -1.2246467572939613e-14 -50 -14.99999999999999
			vertex -4.8985871985824346e-15 -19.999999999999996 15.000000000000004
		endloop
	endfacet
	facet normal 0 2.220446049250313e-16 1
		outer loop
			vertex 0 -19.999999999999996 15.000000000000004
			vertex 4.158233642578125 -19.562952041625973 15.000000000000004
			vertex 0 3.3306690738754696e-15 15
		endloop
	endfacet
	facet normal 0 2.220446049250313e-16 1
		outer loop
			vertex 4.158233642578125 -19.562952041625973 15.000000000000004
			vertex 8.134733200073242 -18.270908355712887 15.000000000000004
			vertex 0 3.3306690738754696e-15 15
		endloop
	endfacet
	facet normal 0 2.220446049250313e-16 1
		outer loop
			vertex 8.134733200073242 -18.270908355712887 15.000000000000004
			vertex 11.755704879760742 -16.18033981323242 15.000000000000004
			vertex 0 3.3306690738754696e-15 15
		endloop
	endfacet
	facet normal 0 2.220446049250313e-16 1
		outer loop
			vertex 11.755704879760742 -16.18033981323242 15.000000000000004
			vertex 14.862896919250488 -13.382612228393551 15.000000000000004
			vertex 0 3.3306690738754696e-15 15
		endloop
	endfacet
	facet normal 0 2.220446049250313e-16 1
		outer loop
			vertex 14.862896919250488 -13.382612228393551 15.000000000000004
			vertex 17.32050895690918 -9.999999999999996 15.000000000000002
			vertex 0 3.3306690738754696e-15 15
		endloop
	endfacet
	facet normal 0 2.220446049250313e-16 1
		outer loop
			vertex 17.32050895690918 -9.999999999999996 15.000000000000002
			vertex 19.021129608154297 -6.180339813232418 15.000000000000002
			vertex 0 3.3306690738754696e-15 15
		endloop
	endfacet
	facet normal 0 2.220446049250313e-16 1
		outer loop
			vertex 19.021129608154297 -6.180339813232418 15.000000000000002
			vertex 19.890438079833984 -2.0905692577362025 15
			vertex 0 3.3306690738754696e-15 15
		endloop
	endfacet
	facet normal 0 2.220446049250313e-16 1
		outer loop
			vertex 19.890438079833984 -2.0905692577362025 15
			vertex 19.890438079833984 2.0905692577362096 15
			vertex 0 3.3306690738754696e-15 15
		endloop
	endfacet
	facet normal 0 2.220446049250313e-16 1
		outer loop
			vertex 19.890438079833984 2.0905692577362096 15
			vertex 19.021129608154297 6.180339813232425 14.999999999999998
			vertex 0 3.3306690738754696e-15 15
		endloop
	endfacet
	facet normal 0 2.220446049250313e-16 1
		outer loop
			vertex 19.021129608154297 6.180339813232425 14.999999999999998
			vertex 17.32050895690918 10.000000000000004 14.999999999999998
			vertex 0 3.3306690738754696e-15 15
		endloop
	endfacet
	facet normal 0 2.220446049250313e-16 1
		outer loop
			vertex 17.32050895690918 10.000000000000004 14.999999999999998
			vertex 14.862896919250488 13.382612228393558 14.999999999999996
			vertex 0 3.3306690738754696e-15 15
		endloop
	endfacet
	facet normal 0 2.220446049250313e-16 1
		outer loop
			vertex 14.862896919250488 13.382612228393558 14.999999999999996
			vertex 11.755704879760742 16.180339813232425 14.999999999999996
			vertex 0 3.3306690738754696e-15 15
		endloop
	endfacet
	facet normal 0 2.220446049250313e-16 1
		outer loop
			vertex 11.755704879760742 16.180339813232425 14.999999999999996
			vertex 8.134733200073242 18.270908355712894 14.999999999999996
			vertex 0 3.3306690738754696e-15 15
		endloop
	endfacet
	facet normal 0 2.220446049250313e-16 1
		outer loop
			vertex 8.134733200073242 18.270908355712894 14.999999999999996
			vertex 4.158233642578125 19.56295204162598 14.999999999999996
			vertex 0 3.3306690738754696e-15 15
		endloop
	endfacet
	facet normal 0 2.220446049250313e-16 1
		outer loop
			vertex 4.158233642578125 19.56295204162598 14.999999999999996
			vertex 2.4492935992912173e-15 20.000000000000004 14.999999999999996
			vertex 0 3.3306690738754696e-15 15
		endloop
	endfacet
	facet normal 0 2.220446049250313e-16 1
		outer loop
			vertex 2.4492935992912173e-15 20.000000000000004 14.999999999999996
			vertex -4.158233642578125 19.56295204162598 14.999999999999996
			vertex 0 3.3306690738754696e-15 15
		endloop
	endfacet
	facet normal 0 2.220446049250313e-16 1
		outer loop
			vertex -4.158233642578125 19.56295204162598 14.999999999999996
			vertex -8.134733200073242 18.270908355712894 14.999999999999996
			vertex 0 3.3306690738754696e-15 15
		endloop
	endfacet
	facet normal 0 2.220446049250313e-16 1
		outer loop
			vertex -8.134733200073242 18.270908355712894 14.999999999999996
			vertex -11.755704879760742 16.180339813232425 14.999999999999996
			vertex 0 3.3306690738754696e-15 15
		endloop
	endfacet
	facet normal 0 2.220446049250313e-16 1
		outer loop
			vertex -11.755704879760742 16.180339813232425 14.999999999999996
			vertex -14.862896919250488 13.382612228393558 14.999999999999996
			vertex 0 3.3306690738754696e-15 15
		endloop
	endfacet
	facet normal 0 2.220446049250313e-16 1
		outer loop
			vertex -14.862896919250488 13.382612228393558 14.999999999999996
			vertex -17.32050895690918 10.000000000000004 14.999999999999998
			vertex 0 3.3306690738754696e-15 15
		endloop
	endfacet
	facet normal 0 2.220446049250313e-16 1
		outer loop
			vertex -17.32050895690918 10.000000000000004 14.999999999999998
			vertex -19.021129608154297 6.180339813232425 14.999999999999998
			vertex 0 3.3306690738754696e-15 15
		endloop
	endfacet
	facet normal 0 2.220446049250313e-16 1
		outer loop
			vertex -19.021129608154297 6.180339813232425 14.999999999999998
			vertex -19.890438079833984 2.0905692577362096 15
			vertex 0 3.3306690738754696e-15 15
		endloop
	endfacet
	facet normal 0 2.220446049250313e-16 1
		outer loop
			vertex -19.890438079833984 2.0905692577362096 15
			vertex -19.890438079833984 -2.0905692577362025 15
			vertex 0 3.3306690738754696e-15 15
		endloop
	endfacet
	facet normal 0 2.220446049250313e-16 1
		outer loop
			vertex -19.890438079833984 -2.0905692577362025 15
			vertex -19.021129608154297 -6.180339813232418 15.000000000000002
			vertex 0 3.3306690738754696e-15 15
		endloop
	endfacet
	facet normal 0 2.220446049250313e-16 1
		outer loop
			vertex -19.021129608154297 -6.180339813232418 15.000000000000002
			vertex -17.32050895690918 -9.999999999999996 15.000000000000002
			vertex 0 3.3306690738754696e-15 15
		endloop
	endfacet
	facet normal 0 2.220446049250313e-16 1
		outer loop
			vertex -17.32050895690918 -9.999999999999996 15.000000000000002
			vertex -14.862896919250488 -13.382612228393551 15.000000000000004
			vertex 0 3.3306690738754696e-15 15
		endloop
	endfacet
	facet normal 0 2.220446049250313e-16 1
		outer loop
			vertex -14.862896919250488 -13.382612228393551 15.000000000000004
			vertex -11.755704879760742 -16.18033981323242 15.000000000000004
			vertex 0 3.3306690738754696e-15 15
		endloop
	endfacet
	facet normal 0 2.220446049250313e-16 1
		outer loop
			vertex -11.755704879760742 -16.18033981323242 15.000000000000004
			vertex -8.134733200073242 -18.270908355712887 15.000000000000004
			vertex 0 3.3306690738754696e-15 15
		endloop
	endfacet
	facet normal 0 2.220446049250313e-16 1
		outer loop
			vertex -8.134733200073242 -18.270908355712887 15.000000000000004
			vertex -4.158233642578125 -19.562952041625973 15.000000000000004
			vertex 0 3.3306690738754696e-15 15
		endloop
	endfacet
	facet normal 0 2.220446049250313e-16 1
		outer loop
			vertex -4.158233642578125 -19.562952041625973 15.000000000000004
			vertex -4.8985871985824346e-15 -19.999999999999996 15.000000000000004
			vertex 0 3.3306690738754696e-15 15
		endloop
	endfacet
	facet normal 0 -2.220446049250313e-16 -1
		outer loop
			vertex 10.395584106445312 -48.907379150390625 -14.99999999999999
			vertex 0 -50 -14.99999999999999
			vertex 0 -3.3306690738754696e-15 -15
		endloop
	endfacet
	facet normal 0 -2.220446049250313e-16 -1
		outer loop
			vertex 20.33683204650879 -45.67727279663086 -14.99999999999999
			vertex 10.395584106445312 -48.907379150390625 -14.99999999999999
			vertex 0 -3.3306690738754696e-15 -15
		endloop
	endfacet
	facet normal 0 -2.220446049250313e-16 -1
		outer loop
			vertex 29.389263153076172 -40.45085144042969 -14.999999999999991
			vertex 20.33683204650879 -45.67727279663086 -14.99999999999999
			vertex 0 -3.3306690738754696e-15 -15
		endloop
	endfacet
	facet normal 0 -2.220446049250313e-16 -1
		outer loop
			vertex 37.15724182128906 -33.4565315246582 -14.999999999999993
			vertex 29.389263153076172 -40.45085144042969 -14.999999999999991
			vertex 0 -3.3306690738754696e-15 -15
		endloop
	endfacet
	facet normal 0 -2.220446049250313e-16 -1
		outer loop
			vertex 43.30126953125 -25.000000000000004 -14.999999999999995
			vertex 37.15724182128906 -33.4565315246582 -14.999999999999993
			vertex 0 -3.3306690738754696e-15 -15
		endloop
	endfacet
	facet normal 0 -2.220446049250313e-16 -1
		outer loop
			vertex 47.552825927734375 -15.450849533081058 -14.999999999999996
			vertex 43.30126953125 -25.000000000000004 -14.999999999999995
			vertex 0 -3.3306690738754696e-15 -15
		endloop
	endfacet
	facet normal 0 -2.220446049250313e-16 -1
		outer loop
			vertex 49.72609329223633 -5.226423263549808 -14.999999999999998
			vertex 47.552825927734375 -15.450849533081058 -14.999999999999996
			vertex 0 -3.3306690738754696e-15 -15
		endloop
	endfacet
	facet normal 0 -2.220446049250313e-16 -1
		outer loop
			vertex 49.72609329223633 5.226423263549801 -15.000000000000002
			vertex 49.72609329223633 -5.226423263549808 -14.999999999999998
			vertex 0 -3.3306690738754696e-15 -15
		endloop
	endfacet
	facet normal 0 -2.220446049250313e-16 -1
		outer loop
			vertex 47.552825927734375 15.450849533081051 -15.000000000000004
			vertex 49.72609329223633 5.226423263549801 -15.000000000000002
			vertex 0 -3.3306690738754696e-15 -15
		endloop
	endfacet
	facet normal 0 -2.220446049250313e-16 -1
		outer loop
			vertex 43.30126953125 24.999999999999996 -15.000000000000005
			vertex 47.552825927734375 15.450849533081051 -15.000000000000004
			vertex 0 -3.3306690738754696e-15 -15
		endloop
	endfacet
	facet normal 0 -2.220446049250313e-16 -1
		outer loop
			vertex 37.15724182128906 33.4565315246582 -15.000000000000007
			vertex 43.30126953125 24.999999999999996 -15.000000000000005
			vertex 0 -3.3306690738754696e-15 -15
		endloop
	endfacet
	facet normal 0 -2.220446049250313e-16 -1
		outer loop
			vertex 29.389263153076172 40.45085144042969 -15.000000000000009
			vertex 37.15724182128906 33.4565315246582 -15.000000000000007
			vertex 0 -3.3306690738754696e-15 -15
		endloop
	endfacet
	facet normal 0 -2.220446049250313e-16 -1
		outer loop
			vertex 20.33683204650879 45.67727279663086 -15.00000000000001
			vertex 29.389263153076172 40.45085144042969 -15.000000000000009
			vertex 0 -3.3306690738754696e-15 -15
		endloop
	endfacet
	facet normal 0 -2.220446049250313e-16 -1
		outer loop
			vertex 10.395584106445312 48.907379150390625 -15.00000000000001
			vertex 20.33683204650879 45.67727279663086 -15.00000000000001
			vertex 0 -3.3306690738754696e-15 -15
		endloop
	endfacet
	facet normal 0 -2.220446049250313e-16 -1
		outer loop
			vertex 6.1232337864698064e-15 50 -15.00000000000001
			vertex 10.395584106445312 48.907379150390625 -15.00000000000001
			vertex 0 -3.3306690738754696e-15 -15
		endloop
	endfacet
	facet normal 0 -2.220446049250313e-16 -1
		outer loop
			vertex -10.395584106445312 48.907379150390625 -15.00000000000001
			vertex 6.1232337864698064e-15 50 -15.00000000000001
			vertex 0 -3.3306690738754696e-15 -15
		endloop
	endfacet
	facet normal 0 -2.220446049250313e-16 -1
		outer loop
			vertex -20.33683204650879 45.67727279663086 -15.00000000000001
			vertex -10.395584106445312 48.907379150390625 -15.00000000000001
			vertex 0 -3.3306690738754696e-15 -15
		endloop
	endfacet
	facet normal 0 -2.220446049250313e-16 -1
		outer loop
			vertex -29.389263153076172 40.45085144042969 -15.000000000000009
			vertex -20.33683204650879 45.67727279663086 -15.00000000000001
			vertex 0 -3.3306690738754696e-15 -15
		endloop
	endfacet
	facet normal 0 -2.220446049250313e-16 -1
		outer loop
			vertex -37.15724182128906 33.4565315246582 -15.000000000000007
			vertex -29.389263153076172 40.45085144042969 -15.000000000000009
			vertex 0 -3.3306690738754696e-15 -15
		endloop
	endfacet
	facet normal 0 -2.220446049250313e-16 -1
		outer loop
			vertex -43.30126953125 24.999999999999996 -15.000000000000005
			vertex -37.15724182128906 33.4565315246582 -15.000000000000007
			vertex 0 -3.3306690738754696e-15 -15
		endloop
	endfacet
	facet normal 0 -2.220446049250313e-16 -1
		outer loop
			vertex -47.552825927734375 15.450849533081051 -15.000000000000004
			vertex -43.30126953125 24.999999999999996 -15.000000000000005
			vertex 0 -3.3306690738754696e-15 -15
		endloop
	endfacet
	facet normal 0 -2.220446049250313e-16 -1
		outer loop
			vertex -49.72609329223633 5.226423263549801 -15.000000000000002
			vertex -47.552825927734375 15.450849533081051 -15.000000000000004
			vertex 0 -3.3306690738754696e-15 -15
		endloop
	endfacet
	facet normal 0 -2.220446049250313e-16 -1
		outer loop
			vertex -49.72609329223633 -5.226423263549808 -14.999999999999998
			vertex -49.72609329223633 5.226423263549801 -15.000000000000002
			vertex 0 -3.3306690738754696e-15 -15
		endloop
	endfacet
	facet normal 0 -2.220446049250313e-16 -1
		outer loop
			vertex -47.552825927734375 -15.450849533081058 -14.999999999999996
			vertex -49.72609329223633 -5.226423263549808 -14.999999999999998
			vertex 0 -3.3306690738754696e-15 -15
		endloop
	endfacet
	facet normal 0 -2.220446049250313e-16 -1
		outer loop
			vertex -43.30126953125 -25.000000000000004 -14.999999999999995
			vertex -47.552825927734375 -15.450849533081058 -14.999999999999996
			vertex 0 -3.3306690738754696e-15 -15
		endloop
	endfacet
	facet normal 0 -2.220446049250313e-16 -1
		outer loop
			vertex -37.15724182128906 -33.4565315246582 -14.999999999999993
			vertex -43.30126953125 -25.000000000000004 -14.999999999999995
			vertex 0 -3.3306690738754696e-15 -15
		endloop
	endfacet
	facet normal 0 -2.220446049250313e-16 -1
		outer loop
			vertex -29.389263153076172 -40.45085144042969 -14.999999999999991
			vertex -37.15724182128906 -33.4565315246582 -14.999999999999993
			vertex 0 -3.3306690738754696e-15 -15
		endloop
	endfacet
	facet normal 0 -2.220446049250313e-16 -1
		outer loop
			vertex -20.33683204650879 -45.67727279663086 -14.99999999999999
			vertex -29.389263153076172 -40.45085144042969 -14.999999999999991
			vertex 0 -3.3306690738754696e-15 -15
		endloop
	endfacet
	facet normal 0 -2.220446049250313e-16 -1
		outer loop
			vertex -10.395584106445312 -48.907379150390625 -14.99999999999999
			vertex -20.33683204650879 -45.67727279663086 -14.99999999999999
			vertex 0 -3.3306690738754696e-15 -15
		endloop
	endfacet
	facet normal 0 -2.220446049250313e-16 -1
		outer loop
			vertex -1.2246467572939613e-14 -50 -14.99999999999999
			vertex -10.395584106445312 -48.907379150390625 -14.99999999999999
			vertex 0 -3.3306690738754696e-15 -15
		endloop
	endfacet
endsolid exported
