solid exported
	facet normal 0.4993109916670984 0.8648320014692454 0.05247992792599597
		outer loop
			vertex 69.56295013427734 0 4.158233642578125
			vertex 70 0 0
			vertex -34.78147506713867 60.243282318115234 4.158233642578125
		endloop
	endfacet
	facet normal 0.499310990158788 0.8648320277579656 0.05247950905540558
		outer loop
			vertex 70 0 0
			vertex -35 60.62177658081055 0
			vertex -34.78147506713867 60.243282318115234 4.158233642578125
		endloop
	endfacet
	facet normal -0.9986219791232863 0 0.05247992770470275
		outer loop
			vertex -34.78147506713867 60.243282318115234 4.158233642578125
			vertex -35 60.62177658081055 0
			vertex -34.78147506713867 -60.243282318115234 4.158233642578125
		endloop
	endfacet
	facet normal -0.9986219791232864 0 0.05247992770470276
		outer loop
			vertex -35 60.62177658081055 0
			vertex -35 -60.62177658081055 0
			vertex -34.78147506713867 -60.243282318115234 4.158233642578125
		endloop
	endfacet
	facet normal 0.4993110027078371 -0.864832020592366 0.052479507743690326
		outer loop
			vertex -34.78147506713867 -60.243282318115234 4.158233642578125
			vertex -35 -60.62177658081055 0
			vertex 69.56295013427734 -1.7038010135779838e-14 4.158233642578125
		endloop
	endfacet
	facet normal 0.499310979186983 -0.8648320087542416 0.052479926614277306
		outer loop
			vertex -35 -60.62177658081055 0
			vertex 70 -1.7145054771522047e-14 0
			vertex 69.56295013427734 -1.7038010135779838e-14 4.158233642578125
		endloop
	endfacet
	facet normal 0.49352952820704205 0.8548182789278809 0.1603568358334322
		outer loop
			vertex 68.27091217041016 0 8.134733200073242
			vertex 69.56295013427734 0 4.158233642578125
			vertex -34.13545608520508 59.12434005737305 8.134733200073242
		endloop
	endfacet
	facet normal 0.49352947849638623 0.8548181269693998 0.16035779887368254
		outer loop
			vertex 69.56295013427734 0 4.158233642578125
			vertex -34.78147506713867 60.243282318115234 4.158233642578125
			vertex -34.13545608520508 59.12434005737305 8.134733200073242
		endloop
	endfacet
	facet normal -0.9870591079150927 0 0.16035684420024543
		outer loop
			vertex -34.13545608520508 59.12434005737305 8.134733200073242
			vertex -34.78147506713867 60.243282318115234 4.158233642578125
			vertex -34.13545608520508 -59.12434005737305 8.134733200073242
		endloop
	endfacet
	facet normal -0.9870591079150927 0 0.16035684420024543
		outer loop
			vertex -34.78147506713867 60.243282318115234 4.158233642578125
			vertex -34.78147506713867 -60.243282318115234 4.158233642578125
			vertex -34.13545608520508 -59.12434005737305 8.134733200073242
		endloop
	endfacet
	facet normal 0.4935294492461297 -0.8548181421635592 0.16035780790112175
		outer loop
			vertex -34.13545608520508 -59.12434005737305 8.134733200073242
			vertex -34.78147506713867 -60.243282318115234 4.158233642578125
			vertex 68.27091217041016 -1.672155015635616e-14 8.134733200073242
		endloop
	endfacet
	facet normal 0.49352955599070897 -0.8548182611935036 0.1603568448608575
		outer loop
			vertex -34.78147506713867 -60.243282318115234 4.158233642578125
			vertex 69.56295013427734 -1.7038010135779838e-14 4.158233642578125
			vertex 68.27091217041016 -1.672155015635616e-14 8.134733200073242
		endloop
	endfacet
	facet normal 0.48038444237680294 0.8320503280762971 0.27735002987282065
		outer loop
			vertex 66.18034362792969 0 11.755704879760742
			vertex 68.27091217041016 0 8.134733200073242
			vertex -33.090171813964844 57.3138542175293 11.755704879760742
		endloop
	endfacet
	facet normal 0.4803844298964459 0.8320502991577067 0.277350138245211
		outer loop
			vertex 68.27091217041016 0 8.134733200073242
			vertex -34.13545608520508 59.12434005737305 8.134733200073242
			vertex -33.090171813964844 57.3138542175293 11.755704879760742
		endloop
	endfacet
	facet normal -0.9607689380853425 0 0.2773500452683637
		outer loop
			vertex -33.090171813964844 57.3138542175293 11.755704879760742
			vertex -34.13545608520508 59.12434005737305 8.134733200073242
			vertex -33.090171813964844 -57.3138542175293 11.755704879760742
		endloop
	endfacet
	facet normal -0.9607689380853426 0 0.2773500452683637
		outer loop
			vertex -34.13545608520508 59.12434005737305 8.134733200073242
			vertex -34.13545608520508 -59.12434005737305 8.134733200073242
			vertex -33.090171813964844 -57.3138542175293 11.755704879760742
		endloop
	endfacet
	facet normal 0.48038442649137847 -0.8320503005619327 0.2773501399302821
		outer loop
			vertex -33.090171813964844 -57.3138542175293 11.755704879760742
			vertex -34.13545608520508 -59.12434005737305 8.134733200073242
			vertex 66.18034362792969 -1.6209508575345567e-14 11.755704879760742
		endloop
	endfacet
	facet normal 0.4803844452954323 -0.8320503258295355 0.27735003155789184
		outer loop
			vertex -34.13545608520508 -59.12434005737305 8.134733200073242
			vertex 68.27091217041016 -1.672155015635616e-14 8.134733200073242
			vertex 66.18034362792969 -1.6209508575345567e-14 11.755704879760742
		endloop
	endfacet
	facet normal 0.45592615193601677 0.7896872255886846 0.4105184888928419
		outer loop
			vertex 63.38261032104492 0 14.862896919250488
			vertex 66.18034362792969 0 11.755704879760742
			vertex -31.69130516052246 54.890953063964844 14.862896919250488
		endloop
	endfacet
	facet normal 0.45592643885916745 0.789687819935416 0.41051702692439923
		outer loop
			vertex 66.18034362792969 0 11.755704879760742
			vertex -33.090171813964844 57.3138542175293 11.755704879760742
			vertex -31.69130516052246 54.890953063964844 14.862896919250488
		endloop
	endfacet
	facet normal -0.9118522793433911 0 0.4105184778499777
		outer loop
			vertex -31.69130516052246 54.890953063964844 14.862896919250488
			vertex -33.090171813964844 57.3138542175293 11.755704879760742
			vertex -31.69130516052246 -54.890953063964844 14.862896919250488
		endloop
	endfacet
	facet normal -0.9118522793433911 0 0.4105184778499777
		outer loop
			vertex -33.090171813964844 57.3138542175293 11.755704879760742
			vertex -33.090171813964844 -57.3138542175293 11.755704879760742
			vertex -31.69130516052246 -54.890953063964844 14.862896919250488
		endloop
	endfacet
	facet normal 0.4559264881327363 -0.7896878078984593 0.4105169953552179
		outer loop
			vertex -31.69130516052246 -54.890953063964844 14.862896919250488
			vertex -33.090171813964844 -57.3138542175293 11.755704879760742
			vertex 63.38261032104492 -1.5524262309148627e-14 14.862896919250488
		endloop
	endfacet
	facet normal 0.45592611687497686 -0.7896872622423944 0.4105184573236833
		outer loop
			vertex -33.090171813964844 -57.3138542175293 11.755704879760742
			vertex 66.18034362792969 -1.6209508575345567e-14 11.755704879760742
			vertex 63.38261032104492 -1.5524262309148627e-14 14.862896919250488
		endloop
	endfacet
	facet normal 0.41188815297724973 0.7134111978830177 0.5669149955435185
		outer loop
			vertex 60 0 17.32050895690918
			vertex 63.38261032104492 0 14.862896919250488
			vertex -30 51.961524963378906 17.32050895690918
		endloop
	endfacet
	facet normal 0.4118880570288588 0.7134110110311894 0.5669153003901445
		outer loop
			vertex 63.38261032104492 0 14.862896919250488
			vertex -31.69130516052246 54.890953063964844 14.862896919250488
			vertex -30 51.961524963378906 17.32050895690918
		endloop
	endfacet
	facet normal -0.8237763000133637 0 0.5669149914548856
		outer loop
			vertex -30 51.961524963378906 17.32050895690918
			vertex -31.69130516052246 54.890953063964844 14.862896919250488
			vertex -30 -51.961524963378906 17.32050895690918
		endloop
	endfacet
	facet normal -0.8237763000133635 0 0.5669149914548854
		outer loop
			vertex -31.69130516052246 54.890953063964844 14.862896919250488
			vertex -31.69130516052246 -54.890953063964844 14.862896919250488
			vertex -30 -51.961524963378906 17.32050895690918
		endloop
	endfacet
	facet normal 0.4118880452051379 -0.7134110112162472 0.5669153087477018
		outer loop
			vertex -30 -51.961524963378906 17.32050895690918
			vertex -31.69130516052246 -54.890953063964844 14.862896919250488
			vertex 60 -1.4695760748714357e-14 17.32050895690918
		endloop
	endfacet
	facet normal 0.41188815904937764 -0.7134111877359041 0.5669150039010797
		outer loop
			vertex -31.69130516052246 -54.890953063964844 14.862896919250488
			vertex 63.38261032104492 -1.5524262309148627e-14 14.862896919250488
			vertex 60 -1.4695760748714357e-14 17.32050895690918
		endloop
	endfacet
	facet normal 0.332508796661206 0.5759221164213868 0.746827701655226
		outer loop
			vertex 56.18033981323242 0 19.021129608154297
			vertex 60 0 17.32050895690918
			vertex -28.09016990661621 48.653602600097656 19.021129608154297
		endloop
	endfacet
	facet normal 0.3325088325975261 0.5759221838633152 0.7468276336469749
		outer loop
			vertex 60 0 17.32050895690918
			vertex -30 51.961524963378906 17.32050895690918
			vertex -28.09016990661621 48.653602600097656 19.021129608154297
		endloop
	endfacet
	facet normal -0.6650175882057798 0 0.7468276959091487
		outer loop
			vertex -28.09016990661621 48.653602600097656 19.021129608154297
			vertex -30 51.961524963378906 17.32050895690918
			vertex -28.09016990661621 -48.653602600097656 19.021129608154297
		endloop
	endfacet
	facet normal -0.6650175882057799 0 0.7468276959091488
		outer loop
			vertex -30 51.961524963378906 17.32050895690918
			vertex -30 -51.961524963378906 17.32050895690918
			vertex -28.09016990661621 -48.653602600097656 19.021129608154297
		endloop
	endfacet
	facet normal 0.3325088361039815 -0.5759221847382767 0.746827631411068
		outer loop
			vertex -28.09016990661621 -48.653602600097656 19.021129608154297
			vertex -30 -51.961524963378906 17.32050895690918
			vertex 56.18033981323242 -1.3760214552537876e-14 19.021129608154297
		endloop
	endfacet
	facet normal 0.33250879566571717 -0.5759221198955468 0.7468276994193198
		outer loop
			vertex -30 -51.961524963378906 17.32050895690918
			vertex 60 -1.4695760748714357e-14 17.32050895690918
			vertex 56.18033981323242 -1.3760214552537876e-14 19.021129608154297
		endloop
	endfacet
	facet normal 0.19561455215945261 0.3388143451750213 0.9202933154636507
		outer loop
			vertex 52.09056854248047 0 19.890438079833984
			vertex 56.18033981323242 0 19.021129608154297
			vertex -26.045284271240234 45.11175537109375 19.890438079833984
		endloop
	endfacet
	facet normal 0.1956144594540046 0.3388141746101355 0.9202933979638073
		outer loop
			vertex 56.18033981323242 0 19.021129608154297
			vertex -28.09016990661621 48.653602600097656 19.021129608154297
			vertex -26.045284271240234 45.11175537109375 19.890438079833984
		endloop
	endfacet
	facet normal -0.39122910460191035 0 0.9202933161293674
		outer loop
			vertex -26.045284271240234 45.11175537109375 19.890438079833984
			vertex -28.09016990661621 48.653602600097656 19.021129608154297
			vertex -26.045284271240234 -45.11175537109375 19.890438079833984
		endloop
	endfacet
	facet normal -0.39122910460191035 0 0.9202933161293674
		outer loop
			vertex -28.09016990661621 48.653602600097656 19.021129608154297
			vertex -28.09016990661621 -48.653602600097656 19.021129608154297
			vertex -26.045284271240234 -45.11175537109375 19.890438079833984
		endloop
	endfacet
	facet normal 0.19561445146104908 -0.3388141707602692 0.9202934010801253
		outer loop
			vertex -26.045284271240234 -45.11175537109375 19.890438079833984
			vertex -28.09016990661621 -48.653602600097656 19.021129608154297
			vertex 52.09056854248047 -1.2758510000983152e-14 19.890438079833984
		endloop
	endfacet
	facet normal 0.19561455282184773 -0.33881433632798 0.9202933185799725
		outer loop
			vertex -28.09016990661621 -48.653602600097656 19.021129608154297
			vertex 56.18033981323242 -1.3760214552537876e-14 19.021129608154297
			vertex 52.09056854248047 -1.2758510000983152e-14 19.890438079833984
		endloop
	endfacet
	facet normal 0 0 1
		outer loop
			vertex 47.90943145751953 0 19.890438079833984
			vertex 52.09056854248047 0 19.890438079833984
			vertex -23.954715728759766 41.49078369140625 19.890438079833984
		endloop
	endfacet
	facet normal 0 0 1
		outer loop
			vertex 52.09056854248047 0 19.890438079833984
			vertex -26.045284271240234 45.11175537109375 19.890438079833984
			vertex -23.954715728759766 41.49078369140625 19.890438079833984
		endloop
	endfacet
	facet normal 0 0 1
		outer loop
			vertex -23.954715728759766 41.49078369140625 19.890438079833984
			vertex -26.045284271240234 45.11175537109375 19.890438079833984
			vertex -23.954715728759766 -41.49078369140625 19.890438079833984
		endloop
	endfacet
	facet normal 0 0 1
		outer loop
			vertex -26.045284271240234 45.11175537109375 19.890438079833984
			vertex -26.045284271240234 -45.11175537109375 19.890438079833984
			vertex -23.954715728759766 -41.49078369140625 19.890438079833984
		endloop
	endfacet
	facet normal 0 0 1
		outer loop
			vertex -23.954715728759766 -41.49078369140625 19.890438079833984
			vertex -26.045284271240234 -45.11175537109375 19.890438079833984
			vertex 47.90943145751953 -1.1734425991929021e-14 19.890438079833984
		endloop
	endfacet
	facet normal 0 0 1
		outer loop
			vertex -26.045284271240234 -45.11175537109375 19.890438079833984
			vertex 52.09056854248047 -1.2758510000983152e-14 19.890438079833984
			vertex 47.90943145751953 -1.1734425991929021e-14 19.890438079833984
		endloop
	endfacet
	facet normal -0.19561455311172113 -0.338814332456393 0.920293319943718
		outer loop
			vertex 43.81966018676758 0 19.021129608154297
			vertex 47.90943145751953 0 19.890438079833984
			vertex -21.90983009338379 37.94894027709961 19.021129608154297
		endloop
	endfacet
	facet normal -0.19561471408599837 -0.3388146319296884 0.9202931754736655
		outer loop
			vertex 47.90943145751953 0 19.890438079833984
			vertex -23.954715728759766 41.49078369140625 19.890438079833984
			vertex -21.90983009338379 37.94894027709961 19.021129608154297
		endloop
	endfacet
	facet normal 0.39122910460191035 0 0.9202933161293674
		outer loop
			vertex -21.90983009338379 37.94894027709961 19.021129608154297
			vertex -23.954715728759766 41.49078369140625 19.890438079833984
			vertex -21.90983009338379 -37.94894027709961 19.021129608154297
		endloop
	endfacet
	facet normal 0.3912291046019103 0 0.9202933161293673
		outer loop
			vertex -23.954715728759766 41.49078369140625 19.890438079833984
			vertex -23.954715728759766 -41.49078369140625 19.890438079833984
			vertex -21.90983009338379 -37.94894027709961 19.021129608154297
		endloop
	endfacet
	facet normal -0.19561473060694706 0.3388146398871314 0.920293169032415
		outer loop
			vertex -21.90983009338379 -37.94894027709961 19.021129608154297
			vertex -23.954715728759766 -41.49078369140625 19.890438079833984
			vertex 43.81966018676758 -1.0732721440374297e-14 19.021129608154297
		endloop
	endfacet
	facet normal -0.19561455174259285 0.338814350742655 0.920293313502482
		outer loop
			vertex -23.954715728759766 -41.49078369140625 19.890438079833984
			vertex 47.90943145751953 -1.1734425991929021e-14 19.890438079833984
			vertex 43.81966018676758 -1.0732721440374297e-14 19.021129608154297
		endloop
	endfacet
	facet normal -0.3325087997140746 -0.5759221057671685 0.7468277085120878
		outer loop
			vertex 40 0 17.32050895690918
			vertex 43.81966018676758 0 19.021129608154297
			vertex -20 34.64101791381836 17.32050895690918
		endloop
	endfacet
	facet normal -0.3325088411186953 -0.5759221859895919 0.7468276282134133
		outer loop
			vertex 43.81966018676758 0 19.021129608154297
			vertex -21.90983009338379 37.94894027709961 19.021129608154297
			vertex -20 34.64101791381836 17.32050895690918
		endloop
	endfacet
	facet normal 0.6650175882057798 0 0.7468276959091487
		outer loop
			vertex -20 34.64101791381836 17.32050895690918
			vertex -21.90983009338379 37.94894027709961 19.021129608154297
			vertex -20 -34.64101791381836 17.32050895690918
		endloop
	endfacet
	facet normal 0.6650175882057798 0 0.7468276959091487
		outer loop
			vertex -21.90983009338379 37.94894027709961 19.021129608154297
			vertex -21.90983009338379 -37.94894027709961 19.021129608154297
			vertex -20 -34.64101791381836 17.32050895690918
		endloop
	endfacet
	facet normal -0.332508846857241 0.575922187421524 0.7468276245542038
		outer loop
			vertex -20 -34.64101791381836 17.32050895690918
			vertex -21.90983009338379 -37.94894027709961 19.021129608154297
			vertex 40 -9.797174397164869e-15 17.32050895690918
		endloop
	endfacet
	facet normal -0.3325087980848916 0.5759221114528604 0.7468277048528797
		outer loop
			vertex -21.90983009338379 -37.94894027709961 19.021129608154297
			vertex 43.81966018676758 -1.0732721440374297e-14 19.021129608154297
			vertex 40 -9.797174397164869e-15 17.32050895690918
		endloop
	endfacet
	facet normal -0.4118881382638332 -0.7134112224705593 0.5669149752922527
		outer loop
			vertex 36.61738967895508 0 14.862896919250488
			vertex 40 0 17.32050895690918
			vertex -18.30869483947754 31.71158790588379 14.862896919250488
		endloop
	endfacet
	facet normal -0.41188793090215975 -0.7134107870505565 0.5669156738854937
		outer loop
			vertex 40 0 17.32050895690918
			vertex -20 34.64101791381836 17.32050895690918
			vertex -18.30869483947754 31.71158790588379 14.862896919250488
		endloop
	endfacet
	facet normal 0.8237763000133637 0 0.5669149914548856
		outer loop
			vertex -18.30869483947754 31.71158790588379 14.862896919250488
			vertex -20 34.64101791381836 17.32050895690918
			vertex -18.30869483947754 -31.71158790588379 14.862896919250488
		endloop
	endfacet
	facet normal 0.8237763000133635 0 0.5669149914548854
		outer loop
			vertex -20 34.64101791381836 17.32050895690918
			vertex -20 -34.64101791381836 17.32050895690918
			vertex -18.30869483947754 -31.71158790588379 14.862896919250488
		endloop
	endfacet
	facet normal -0.41188788726827413 0.7134107877334744 0.5669157047279436
		outer loop
			vertex -18.30869483947754 -31.71158790588379 14.862896919250488
			vertex -20 -34.64101791381836 17.32050895690918
			vertex 36.61738967895508 -8.968673683763546e-15 14.862896919250488
		endloop
	endfacet
	facet normal -0.4118881606722266 0.7134111850239663 0.5669150061347381
		outer loop
			vertex -20 -34.64101791381836 17.32050895690918
			vertex 40 -9.797174397164869e-15 17.32050895690918
			vertex 36.61738967895508 -8.968673683763546e-15 14.862896919250488
		endloop
	endfacet
	facet normal -0.4559262442018339 -0.7896874201121539 0.41051801222920853
		outer loop
			vertex 33.81966018676758 0 11.755704879760742
			vertex 36.61738967895508 0 14.862896919250488
			vertex -16.90983009338379 29.288684844970703 11.755704879760742
		endloop
	endfacet
	facet normal -0.45592630540382967 -0.7896875697019611 0.4105176565009403
		outer loop
			vertex 36.61738967895508 0 14.862896919250488
			vertex -18.30869483947754 31.71158790588379 14.862896919250488
			vertex -16.90983009338379 29.288684844970703 11.755704879760742
		endloop
	endfacet
	facet normal 0.9118524888720949 0 0.41051801244009545
		outer loop
			vertex -16.90983009338379 29.288684844970703 11.755704879760742
			vertex -18.30869483947754 31.71158790588379 14.862896919250488
			vertex -16.90983009338379 -29.288684844970703 11.755704879760742
		endloop
	endfacet
	facet normal 0.9118524888720949 0 0.41051801244009545
		outer loop
			vertex -18.30869483947754 31.71158790588379 14.862896919250488
			vertex -18.30869483947754 -31.71158790588379 14.862896919250488
			vertex -16.90983009338379 -29.288684844970703 11.755704879760742
		endloop
	endfacet
	facet normal -0.4559263274571537 0.7896875643145981 0.41051764237156707
		outer loop
			vertex -16.90983009338379 -29.288684844970703 11.755704879760742
			vertex -18.30869483947754 -31.71158790588379 14.862896919250488
			vertex 33.81966018676758 -8.283427417566606e-15 11.755704879760742
		endloop
	endfacet
	facet normal -0.4559262285095841 0.7896874365172137 0.41051799809983736
		outer loop
			vertex -18.30869483947754 -31.71158790588379 14.862896919250488
			vertex 36.61738967895508 -8.968673683763546e-15 14.862896919250488
			vertex 33.81966018676758 -8.283427417566606e-15 11.755704879760742
		endloop
	endfacet
	facet normal -0.48038446422765607 -0.8320503112555052 0.277350042488414
		outer loop
			vertex 31.72909164428711 0 8.134733200073242
			vertex 33.81966018676758 0 11.755704879760742
			vertex -15.864545822143555 27.478199005126953 8.134733200073242
		endloop
	endfacet
	facet normal -0.48038445728193035 -0.8320502878641238 0.2773501246929128
		outer loop
			vertex 33.81966018676758 0 11.755704879760742
			vertex -16.90983009338379 29.288684844970703 11.755704879760742
			vertex -15.864545822143555 27.478199005126953 8.134733200073242
		endloop
	endfacet
	facet normal 0.9607689380853426 0 0.2773500452683637
		outer loop
			vertex -15.864545822143555 27.478199005126953 8.134733200073242
			vertex -16.90983009338379 29.288684844970703 11.755704879760742
			vertex -15.864545822143555 -27.478199005126953 8.134733200073242
		endloop
	endfacet
	facet normal 0.9607689380853426 0 0.2773500452683637
		outer loop
			vertex -16.90983009338379 29.288684844970703 11.755704879760742
			vertex -16.90983009338379 -29.288684844970703 11.755704879760742
			vertex -15.864545822143555 -27.478199005126953 8.134733200073242
		endloop
	endfacet
	facet normal -0.4803844519840386 0.8320502900489376 0.277350127314689
		outer loop
			vertex -15.864545822143555 -27.478199005126953 8.134733200073242
			vertex -16.90983009338379 -29.288684844970703 11.755704879760742
			vertex 31.72909164428711 -7.771385836556014e-15 8.134733200073242
		endloop
	endfacet
	facet normal -0.4803844687687061 0.8320503077598033 0.27735004511019
		outer loop
			vertex -16.90983009338379 -29.288684844970703 11.755704879760742
			vertex 33.81966018676758 -8.283427417566606e-15 11.755704879760742
			vertex 31.72909164428711 -7.771385836556014e-15 8.134733200073242
		endloop
	endfacet
	facet normal -0.49352949770220755 -0.8548181651765088 0.16035753609379777
		outer loop
			vertex 30.437047958374023 0 4.158233642578125
			vertex 31.72909164428711 0 8.134733200073242
			vertex -15.218523979187012 26.359256744384766 4.158233642578125
		endloop
	endfacet
	facet normal -0.49352949896103065 -0.8548181796106014 0.1603574552756797
		outer loop
			vertex 31.72909164428711 0 8.134733200073242
			vertex -15.864545822143555 27.478199005126953 8.134733200073242
			vertex -15.218523979187012 26.359256744384766 4.158233642578125
		endloop
	endfacet
	facet normal 0.9870589955076384 0 0.16035753611056744
		outer loop
			vertex -15.218523979187012 26.359256744384766 4.158233642578125
			vertex -15.864545822143555 27.478199005126953 8.134733200073242
			vertex -15.218523979187012 -26.359256744384766 4.158233642578125
		endloop
	endfacet
	facet normal 0.9870589955076385 0 0.16035753611056744
		outer loop
			vertex -15.864545822143555 27.478199005126953 8.134733200073242
			vertex -15.864545822143555 -27.478199005126953 8.134733200073242
			vertex -15.218523979187012 -26.359256744384766 4.158233642578125
		endloop
	endfacet
	facet normal -0.49352950440350074 0.8548181767834893 0.1603574535959788
		outer loop
			vertex -15.218523979187012 -26.359256744384766 4.158233642578125
			vertex -15.864545822143555 -27.478199005126953 8.134733200073242
			vertex 30.437047958374023 -7.454926704165282e-15 4.158233642578125
		endloop
	endfacet
	facet normal -0.4935294925326215 0.8548181684762702 0.16035753441409667
		outer loop
			vertex -15.864545822143555 -27.478199005126953 8.134733200073242
			vertex 31.72909164428711 -7.771385836556014e-15 8.134733200073242
			vertex 30.437047958374023 -7.454926704165282e-15 4.158233642578125
		endloop
	endfacet
	facet normal -0.4993110008550277 -0.8648320100040096 0.052479699861713656
		outer loop
			vertex 30 0 2.4492935992912173e-15
			vertex 30.437047958374023 0 4.158233642578125
			vertex -15 25.980762481689453 2.4492935992912173e-15
		endloop
	endfacet
	facet normal -0.4993109975363027 -0.8648320166345458 0.052479622170202224
		outer loop
			vertex 30.437047958374023 0 4.158233642578125
			vertex -15.218523979187012 26.359256744384766 4.158233642578125
			vertex -15 25.980762481689453 2.4492935992912173e-15
		endloop
	endfacet
	facet normal 0.9986219911261736 0 0.052479699305508255
		outer loop
			vertex -15 25.980762481689453 2.4492935992912173e-15
			vertex -15.218523979187012 26.359256744384766 4.158233642578125
			vertex -15 -25.980762481689453 2.4492935992912173e-15
		endloop
	endfacet
	facet normal 0.9986219911261736 0 0.052479699305508255
		outer loop
			vertex -15.218523979187012 26.359256744384766 4.158233642578125
			vertex -15.218523979187012 -26.359256744384766 4.158233642578125
			vertex -15 -25.980762481689453 2.4492935992912173e-15
		endloop
	endfacet
	facet normal -0.4993110029112152 0.8648320135654309 0.05247962160837962
		outer loop
			vertex -15 -25.980762481689453 2.4492935992912173e-15
			vertex -15.218523979187012 -26.359256744384766 4.158233642578125
			vertex 30 -7.347880374357178e-15 2.4492935992912173e-15
		endloop
	endfacet
	facet normal -0.49931099550963987 0.864832013124263 0.052479699299890784
		outer loop
			vertex -15.218523979187012 -26.359256744384766 4.158233642578125
			vertex 30.437047958374023 -7.454926704165282e-15 4.158233642578125
			vertex 30 -7.347880374357178e-15 2.4492935992912173e-15
		endloop
	endfacet
	facet normal -0.49931099550964 -0.8648320131242629 -0.05247969929989071
		outer loop
			vertex 30.437047958374023 0 -4.158233642578125
			vertex 30 0 2.4492935992912173e-15
			vertex -15.218523979187012 26.359256744384766 -4.158233642578125
		endloop
	endfacet
	facet normal -0.49931100291121544 -0.864832013565431 -0.05247962160837956
		outer loop
			vertex 30 0 2.4492935992912173e-15
			vertex -15 25.980762481689453 2.4492935992912173e-15
			vertex -15.218523979187012 26.359256744384766 -4.158233642578125
		endloop
	endfacet
	facet normal 0.9986219911261736 0 -0.052479699305508186
		outer loop
			vertex -15.218523979187012 26.359256744384766 -4.158233642578125
			vertex -15 25.980762481689453 2.4492935992912173e-15
			vertex -15.218523979187012 -26.359256744384766 -4.158233642578125
		endloop
	endfacet
	facet normal 0.9986219911261736 0 -0.052479699305508186
		outer loop
			vertex -15 25.980762481689453 2.4492935992912173e-15
			vertex -15 -25.980762481689453 2.4492935992912173e-15
			vertex -15.218523979187012 -26.359256744384766 -4.158233642578125
		endloop
	endfacet
	facet normal -0.49931099753630265 0.8648320166345459 -0.052479622170202175
		outer loop
			vertex -15.218523979187012 -26.359256744384766 -4.158233642578125
			vertex -15 -25.980762481689453 2.4492935992912173e-15
			vertex 30.437047958374023 -7.454926704165282e-15 -4.158233642578125
		endloop
	endfacet
	facet normal -0.49931100085502766 0.8648320100040097 -0.0524796998617136
		outer loop
			vertex -15 -25.980762481689453 2.4492935992912173e-15
			vertex 30 -7.347880374357178e-15 2.4492935992912173e-15
			vertex 30.437047958374023 -7.454926704165282e-15 -4.158233642578125
		endloop
	endfacet
	facet normal -0.4935294925326215 -0.8548181684762701 -0.1603575344140966
		outer loop
			vertex 31.72909164428711 0 -8.134733200073242
			vertex 30.437047958374023 0 -4.158233642578125
			vertex -15.864545822143555 27.478199005126953 -8.134733200073242
		endloop
	endfacet
	facet normal -0.49352950440350085 -0.8548181767834893 -0.1603574535959788
		outer loop
			vertex 30.437047958374023 0 -4.158233642578125
			vertex -15.218523979187012 26.359256744384766 -4.158233642578125
			vertex -15.864545822143555 27.478199005126953 -8.134733200073242
		endloop
	endfacet
	facet normal 0.9870589955076385 0 -0.16035753611056744
		outer loop
			vertex -15.864545822143555 27.478199005126953 -8.134733200073242
			vertex -15.218523979187012 26.359256744384766 -4.158233642578125
			vertex -15.864545822143555 -27.478199005126953 -8.134733200073242
		endloop
	endfacet
	facet normal 0.9870589955076384 0 -0.16035753611056744
		outer loop
			vertex -15.218523979187012 26.359256744384766 -4.158233642578125
			vertex -15.218523979187012 -26.359256744384766 -4.158233642578125
			vertex -15.864545822143555 -27.478199005126953 -8.134733200073242
		endloop
	endfacet
	facet normal -0.4935294989610306 0.8548181796106016 -0.16035745527567974
		outer loop
			vertex -15.864545822143555 -27.478199005126953 -8.134733200073242
			vertex -15.218523979187012 -26.359256744384766 -4.158233642578125
			vertex 31.72909164428711 -7.771385836556014e-15 -8.134733200073242
		endloop
	endfacet
	facet normal -0.4935294977022075 0.854818165176509 -0.16035753609379783
		outer loop
			vertex -15.218523979187012 -26.359256744384766 -4.158233642578125
			vertex 30.437047958374023 -7.454926704165282e-15 -4.158233642578125
			vertex 31.72909164428711 -7.771385836556014e-15 -8.134733200073242
		endloop
	endfacet
	facet normal -0.48038446876870633 -0.8320503077598035 -0.27735004511019
		outer loop
			vertex 33.81966018676758 0 -11.755704879760742
			vertex 31.72909164428711 0 -8.134733200073242
			vertex -16.90983009338379 29.288684844970703 -11.755704879760742
		endloop
	endfacet
	facet normal -0.4803844519840387 -0.8320502900489374 -0.2773501273146889
		outer loop
			vertex 31.72909164428711 0 -8.134733200073242
			vertex -15.864545822143555 27.478199005126953 -8.134733200073242
			vertex -16.90983009338379 29.288684844970703 -11.755704879760742
		endloop
	endfacet
	facet normal 0.9607689380853426 0 -0.2773500452683637
		outer loop
			vertex -16.90983009338379 29.288684844970703 -11.755704879760742
			vertex -15.864545822143555 27.478199005126953 -8.134733200073242
			vertex -16.90983009338379 -29.288684844970703 -11.755704879760742
		endloop
	endfacet
	facet normal 0.9607689380853426 0 -0.2773500452683637
		outer loop
			vertex -15.864545822143555 27.478199005126953 -8.134733200073242
			vertex -15.864545822143555 -27.478199005126953 -8.134733200073242
			vertex -16.90983009338379 -29.288684844970703 -11.755704879760742
		endloop
	endfacet
	facet normal -0.4803844572819302 0.8320502878641238 -0.27735012469291287
		outer loop
			vertex -16.90983009338379 -29.288684844970703 -11.755704879760742
			vertex -15.864545822143555 -27.478199005126953 -8.134733200073242
			vertex 33.81966018676758 -8.283427417566606e-15 -11.755704879760742
		endloop
	endfacet
	facet normal -0.48038446422765596 0.8320503112555051 -0.277350042488414
		outer loop
			vertex -15.864545822143555 -27.478199005126953 -8.134733200073242
			vertex 31.72909164428711 -7.771385836556014e-15 -8.134733200073242
			vertex 33.81966018676758 -8.283427417566606e-15 -11.755704879760742
		endloop
	endfacet
	facet normal -0.45592622850958425 -0.7896874365172137 -0.4105179980998373
		outer loop
			vertex 36.61738967895508 0 -14.862896919250488
			vertex 33.81966018676758 0 -11.755704879760742
			vertex -18.30869483947754 31.71158790588379 -14.862896919250488
		endloop
	endfacet
	facet normal -0.45592632745715383 -0.7896875643145981 -0.41051764237156707
		outer loop
			vertex 33.81966018676758 0 -11.755704879760742
			vertex -16.90983009338379 29.288684844970703 -11.755704879760742
			vertex -18.30869483947754 31.71158790588379 -14.862896919250488
		endloop
	endfacet
	facet normal 0.9118524888720949 0 -0.41051801244009545
		outer loop
			vertex -18.30869483947754 31.71158790588379 -14.862896919250488
			vertex -16.90983009338379 29.288684844970703 -11.755704879760742
			vertex -18.30869483947754 -31.71158790588379 -14.862896919250488
		endloop
	endfacet
	facet normal 0.9118524888720949 0 -0.41051801244009545
		outer loop
			vertex -16.90983009338379 29.288684844970703 -11.755704879760742
			vertex -16.90983009338379 -29.288684844970703 -11.755704879760742
			vertex -18.30869483947754 -31.71158790588379 -14.862896919250488
		endloop
	endfacet
	facet normal -0.45592630540382967 0.7896875697019613 -0.41051765650094046
		outer loop
			vertex -18.30869483947754 -31.71158790588379 -14.862896919250488
			vertex -16.90983009338379 -29.288684844970703 -11.755704879760742
			vertex 36.61738967895508 -8.968673683763546e-15 -14.862896919250488
		endloop
	endfacet
	facet normal -0.4559262442018338 0.7896874201121539 -0.41051801222920864
		outer loop
			vertex -16.90983009338379 -29.288684844970703 -11.755704879760742
			vertex 33.81966018676758 -8.283427417566606e-15 -11.755704879760742
			vertex 36.61738967895508 -8.968673683763546e-15 -14.862896919250488
		endloop
	endfacet
	facet normal -0.41188816067222667 -0.7134111850239663 -0.566915006134738
		outer loop
			vertex 40 0 -17.32050895690918
			vertex 36.61738967895508 0 -14.862896919250488
			vertex -20 34.64101791381836 -17.32050895690918
		endloop
	endfacet
	facet normal -0.4118878872682743 -0.7134107877334745 -0.5669157047279436
		outer loop
			vertex 36.61738967895508 0 -14.862896919250488
			vertex -18.30869483947754 31.71158790588379 -14.862896919250488
			vertex -20 34.64101791381836 -17.32050895690918
		endloop
	endfacet
	facet normal 0.8237763000133635 0 -0.5669149914548854
		outer loop
			vertex -20 34.64101791381836 -17.32050895690918
			vertex -18.30869483947754 31.71158790588379 -14.862896919250488
			vertex -20 -34.64101791381836 -17.32050895690918
		endloop
	endfacet
	facet normal 0.8237763000133637 0 -0.5669149914548856
		outer loop
			vertex -18.30869483947754 31.71158790588379 -14.862896919250488
			vertex -18.30869483947754 -31.71158790588379 -14.862896919250488
			vertex -20 -34.64101791381836 -17.32050895690918
		endloop
	endfacet
	facet normal -0.4118879309021596 0.7134107870505565 -0.5669156738854938
		outer loop
			vertex -20 -34.64101791381836 -17.32050895690918
			vertex -18.30869483947754 -31.71158790588379 -14.862896919250488
			vertex 40 -9.797174397164869e-15 -17.32050895690918
		endloop
	endfacet
	facet normal -0.4118881382638331 0.7134112224705594 -0.5669149752922528
		outer loop
			vertex -18.30869483947754 -31.71158790588379 -14.862896919250488
			vertex 36.61738967895508 -8.968673683763546e-15 -14.862896919250488
			vertex 40 -9.797174397164869e-15 -17.32050895690918
		endloop
	endfacet
	facet normal -0.3325087980848917 -0.5759221114528603 -0.7468277048528796
		outer loop
			vertex 43.81966018676758 0 -19.021129608154297
			vertex 40 0 -17.32050895690918
			vertex -21.90983009338379 37.94894027709961 -19.021129608154297
		endloop
	endfacet
	facet normal -0.33250884685724114 -0.575922187421524 -0.7468276245542037
		outer loop
			vertex 40 0 -17.32050895690918
			vertex -20 34.64101791381836 -17.32050895690918
			vertex -21.90983009338379 37.94894027709961 -19.021129608154297
		endloop
	endfacet
	facet normal 0.6650175882057798 0 -0.7468276959091487
		outer loop
			vertex -21.90983009338379 37.94894027709961 -19.021129608154297
			vertex -20 34.64101791381836 -17.32050895690918
			vertex -21.90983009338379 -37.94894027709961 -19.021129608154297
		endloop
	endfacet
	facet normal 0.6650175882057798 0 -0.7468276959091487
		outer loop
			vertex -20 34.64101791381836 -17.32050895690918
			vertex -20 -34.64101791381836 -17.32050895690918
			vertex -21.90983009338379 -37.94894027709961 -19.021129608154297
		endloop
	endfacet
	facet normal -0.3325088411186951 0.5759221859895919 -0.7468276282134133
		outer loop
			vertex -21.90983009338379 -37.94894027709961 -19.021129608154297
			vertex -20 -34.64101791381836 -17.32050895690918
			vertex 43.81966018676758 -1.0732721440374297e-14 -19.021129608154297
		endloop
	endfacet
	facet normal -0.3325087997140745 0.5759221057671684 -0.7468277085120879
		outer loop
			vertex -20 -34.64101791381836 -17.32050895690918
			vertex 40 -9.797174397164869e-15 -17.32050895690918
			vertex 43.81966018676758 -1.0732721440374297e-14 -19.021129608154297
		endloop
	endfacet
	facet normal -0.19561455174259298 -0.3388143507426551 -0.9202933135024821
		outer loop
			vertex 47.90943145751953 0 -19.890438079833984
			vertex 43.81966018676758 0 -19.021129608154297
			vertex -23.954715728759766 41.49078369140625 -19.890438079833984
		endloop
	endfacet
	facet normal -0.1956147306069472 -0.33881463988713145 -0.920293169032415
		outer loop
			vertex 43.81966018676758 0 -19.021129608154297
			vertex -21.90983009338379 37.94894027709961 -19.021129608154297
			vertex -23.954715728759766 41.49078369140625 -19.890438079833984
		endloop
	endfacet
	facet normal 0.3912291046019103 0 -0.9202933161293673
		outer loop
			vertex -23.954715728759766 41.49078369140625 -19.890438079833984
			vertex -21.90983009338379 37.94894027709961 -19.021129608154297
			vertex -23.954715728759766 -41.49078369140625 -19.890438079833984
		endloop
	endfacet
	facet normal 0.39122910460191035 0 -0.9202933161293674
		outer loop
			vertex -21.90983009338379 37.94894027709961 -19.021129608154297
			vertex -21.90983009338379 -37.94894027709961 -19.021129608154297
			vertex -23.954715728759766 -41.49078369140625 -19.890438079833984
		endloop
	endfacet
	facet normal -0.19561471408599826 0.33881463192968836 -0.9202931754736655
		outer loop
			vertex -23.954715728759766 -41.49078369140625 -19.890438079833984
			vertex -21.90983009338379 -37.94894027709961 -19.021129608154297
			vertex 47.90943145751953 -1.1734425991929021e-14 -19.890438079833984
		endloop
	endfacet
	facet normal -0.19561455311172105 0.338814332456393 -0.920293319943718
		outer loop
			vertex -21.90983009338379 -37.94894027709961 -19.021129608154297
			vertex 43.81966018676758 -1.0732721440374297e-14 -19.021129608154297
			vertex 47.90943145751953 -1.1734425991929021e-14 -19.890438079833984
		endloop
	endfacet
	facet normal 0 0 -1
		outer loop
			vertex 52.09056854248047 0 -19.890438079833984
			vertex 47.90943145751953 0 -19.890438079833984
			vertex -26.045284271240234 45.11175537109375 -19.890438079833984
		endloop
	endfacet
	facet normal 0 0 -1
		outer loop
			vertex 47.90943145751953 0 -19.890438079833984
			vertex -23.954715728759766 41.49078369140625 -19.890438079833984
			vertex -26.045284271240234 45.11175537109375 -19.890438079833984
		endloop
	endfacet
	facet normal 0 0 -1
		outer loop
			vertex -26.045284271240234 45.11175537109375 -19.890438079833984
			vertex -23.954715728759766 41.49078369140625 -19.890438079833984
			vertex -26.045284271240234 -45.11175537109375 -19.890438079833984
		endloop
	endfacet
	facet normal 0 0 -1
		outer loop
			vertex -23.954715728759766 41.49078369140625 -19.890438079833984
			vertex -23.954715728759766 -41.49078369140625 -19.890438079833984
			vertex -26.045284271240234 -45.11175537109375 -19.890438079833984
		endloop
	endfacet
	facet normal 0 0 -1
		outer loop
			vertex -26.045284271240234 -45.11175537109375 -19.890438079833984
			vertex -23.954715728759766 -41.49078369140625 -19.890438079833984
			vertex 52.09056854248047 -1.2758510000983152e-14 -19.890438079833984
		endloop
	endfacet
	facet normal 0 0 -1
		outer loop
			vertex -23.954715728759766 -41.49078369140625 -19.890438079833984
			vertex 47.90943145751953 -1.1734425991929021e-14 -19.890438079833984
			vertex 52.09056854248047 -1.2758510000983152e-14 -19.890438079833984
		endloop
	endfacet
	facet normal 0.1956145528218479 0.33881433632798014 -0.9202933185799728
		outer loop
			vertex 56.18033981323242 0 -19.021129608154297
			vertex 52.09056854248047 0 -19.890438079833984
			vertex -28.09016990661621 48.653602600097656 -19.021129608154297
		endloop
	endfacet
	facet normal 0.19561445146104922 0.33881417076026926 -0.9202934010801253
		outer loop
			vertex 52.09056854248047 0 -19.890438079833984
			vertex -26.045284271240234 45.11175537109375 -19.890438079833984
			vertex -28.09016990661621 48.653602600097656 -19.021129608154297
		endloop
	endfacet
	facet normal -0.39122910460191035 0 -0.9202933161293674
		outer loop
			vertex -28.09016990661621 48.653602600097656 -19.021129608154297
			vertex -26.045284271240234 45.11175537109375 -19.890438079833984
			vertex -28.09016990661621 -48.653602600097656 -19.021129608154297
		endloop
	endfacet
	facet normal -0.39122910460191035 0 -0.9202933161293674
		outer loop
			vertex -26.045284271240234 45.11175537109375 -19.890438079833984
			vertex -26.045284271240234 -45.11175537109375 -19.890438079833984
			vertex -28.09016990661621 -48.653602600097656 -19.021129608154297
		endloop
	endfacet
	facet normal 0.19561445945400452 -0.33881417461013547 -0.9202933979638073
		outer loop
			vertex -28.09016990661621 -48.653602600097656 -19.021129608154297
			vertex -26.045284271240234 -45.11175537109375 -19.890438079833984
			vertex 56.18033981323242 -1.3760214552537876e-14 -19.021129608154297
		endloop
	endfacet
	facet normal 0.1956145521594525 -0.33881434517502124 -0.9202933154636507
		outer loop
			vertex -26.045284271240234 -45.11175537109375 -19.890438079833984
			vertex 52.09056854248047 -1.2758510000983152e-14 -19.890438079833984
			vertex 56.18033981323242 -1.3760214552537876e-14 -19.021129608154297
		endloop
	endfacet
	facet normal 0.3325087956657172 0.5759221198955468 -0.7468276994193197
		outer loop
			vertex 60 0 -17.32050895690918
			vertex 56.18033981323242 0 -19.021129608154297
			vertex -30 51.961524963378906 -17.32050895690918
		endloop
	endfacet
	facet normal 0.33250883610398163 0.5759221847382767 -0.7468276314110679
		outer loop
			vertex 56.18033981323242 0 -19.021129608154297
			vertex -28.09016990661621 48.653602600097656 -19.021129608154297
			vertex -30 51.961524963378906 -17.32050895690918
		endloop
	endfacet
	facet normal -0.6650175882057799 0 -0.7468276959091488
		outer loop
			vertex -30 51.961524963378906 -17.32050895690918
			vertex -28.09016990661621 48.653602600097656 -19.021129608154297
			vertex -30 -51.961524963378906 -17.32050895690918
		endloop
	endfacet
	facet normal -0.6650175882057798 0 -0.7468276959091487
		outer loop
			vertex -28.09016990661621 48.653602600097656 -19.021129608154297
			vertex -28.09016990661621 -48.653602600097656 -19.021129608154297
			vertex -30 -51.961524963378906 -17.32050895690918
		endloop
	endfacet
	facet normal 0.332508832597526 -0.5759221838633152 -0.746827633646975
		outer loop
			vertex -30 -51.961524963378906 -17.32050895690918
			vertex -28.09016990661621 -48.653602600097656 -19.021129608154297
			vertex 60 -1.4695760748714357e-14 -17.32050895690918
		endloop
	endfacet
	facet normal 0.33250879666120586 -0.5759221164213868 -0.7468277016552262
		outer loop
			vertex -28.09016990661621 -48.653602600097656 -19.021129608154297
			vertex 56.18033981323242 -1.3760214552537876e-14 -19.021129608154297
			vertex 60 -1.4695760748714357e-14 -17.32050895690918
		endloop
	endfacet
	facet normal 0.4118881590493777 0.7134111877359041 -0.5669150039010796
		outer loop
			vertex 63.38261032104492 0 -14.862896919250488
			vertex 60 0 -17.32050895690918
			vertex -31.69130516052246 54.890953063964844 -14.862896919250488
		endloop
	endfacet
	facet normal 0.41188804520513794 0.7134110112162472 -0.5669153087477017
		outer loop
			vertex 60 0 -17.32050895690918
			vertex -30 51.961524963378906 -17.32050895690918
			vertex -31.69130516052246 54.890953063964844 -14.862896919250488
		endloop
	endfacet
	facet normal -0.8237763000133635 0 -0.5669149914548854
		outer loop
			vertex -31.69130516052246 54.890953063964844 -14.862896919250488
			vertex -30 51.961524963378906 -17.32050895690918
			vertex -31.69130516052246 -54.890953063964844 -14.862896919250488
		endloop
	endfacet
	facet normal -0.8237763000133637 0 -0.5669149914548856
		outer loop
			vertex -30 51.961524963378906 -17.32050895690918
			vertex -30 -51.961524963378906 -17.32050895690918
			vertex -31.69130516052246 -54.890953063964844 -14.862896919250488
		endloop
	endfacet
	facet normal 0.41188805702885867 -0.7134110110311894 -0.5669153003901446
		outer loop
			vertex -31.69130516052246 -54.890953063964844 -14.862896919250488
			vertex -30 -51.961524963378906 -17.32050895690918
			vertex 63.38261032104492 -1.5524262309148627e-14 -14.862896919250488
		endloop
	endfacet
	facet normal 0.4118881529772497 -0.7134111978830177 -0.5669149955435187
		outer loop
			vertex -30 -51.961524963378906 -17.32050895690918
			vertex 60 -1.4695760748714357e-14 -17.32050895690918
			vertex 63.38261032104492 -1.5524262309148627e-14 -14.862896919250488
		endloop
	endfacet
	facet normal 0.455926116874977 0.7896872622423944 -0.41051845732368325
		outer loop
			vertex 66.18034362792969 0 -11.755704879760742
			vertex 63.38261032104492 0 -14.862896919250488
			vertex -33.090171813964844 57.3138542175293 -11.755704879760742
		endloop
	endfacet
	facet normal 0.4559264881327364 0.7896878078984593 -0.4105169953552179
		outer loop
			vertex 63.38261032104492 0 -14.862896919250488
			vertex -31.69130516052246 54.890953063964844 -14.862896919250488
			vertex -33.090171813964844 57.3138542175293 -11.755704879760742
		endloop
	endfacet
	facet normal -0.9118522793433911 0 -0.4105184778499777
		outer loop
			vertex -33.090171813964844 57.3138542175293 -11.755704879760742
			vertex -31.69130516052246 54.890953063964844 -14.862896919250488
			vertex -33.090171813964844 -57.3138542175293 -11.755704879760742
		endloop
	endfacet
	facet normal -0.9118522793433911 0 -0.4105184778499777
		outer loop
			vertex -31.69130516052246 54.890953063964844 -14.862896919250488
			vertex -31.69130516052246 -54.890953063964844 -14.862896919250488
			vertex -33.090171813964844 -57.3138542175293 -11.755704879760742
		endloop
	endfacet
	facet normal 0.4559264388591673 -0.789687819935416 -0.41051702692439923
		outer loop
			vertex -33.090171813964844 -57.3138542175293 -11.755704879760742
			vertex -31.69130516052246 -54.890953063964844 -14.862896919250488
			vertex 66.18034362792969 -1.6209508575345567e-14 -11.755704879760742
		endloop
	endfacet
	facet normal 0.4559261519360166 -0.7896872255886846 -0.41051848889284204
		outer loop
			vertex -31.69130516052246 -54.890953063964844 -14.862896919250488
			vertex 63.38261032104492 -1.5524262309148627e-14 -14.862896919250488
			vertex 66.18034362792969 -1.6209508575345567e-14 -11.755704879760742
		endloop
	endfacet
	facet normal 0.4803844452954324 0.8320503258295355 -0.2773500315578918
		outer loop
			vertex 68.27091217041016 0 -8.134733200073242
			vertex 66.18034362792969 0 -11.755704879760742
			vertex -34.13545608520508 59.12434005737305 -8.134733200073242
		endloop
	endfacet
	facet normal 0.48038442649137864 0.8320503005619327 -0.2773501399302821
		outer loop
			vertex 66.18034362792969 0 -11.755704879760742
			vertex -33.090171813964844 57.3138542175293 -11.755704879760742
			vertex -34.13545608520508 59.12434005737305 -8.134733200073242
		endloop
	endfacet
	facet normal -0.9607689380853426 0 -0.2773500452683637
		outer loop
			vertex -34.13545608520508 59.12434005737305 -8.134733200073242
			vertex -33.090171813964844 57.3138542175293 -11.755704879760742
			vertex -34.13545608520508 -59.12434005737305 -8.134733200073242
		endloop
	endfacet
	facet normal -0.9607689380853425 0 -0.2773500452683637
		outer loop
			vertex -33.090171813964844 57.3138542175293 -11.755704879760742
			vertex -33.090171813964844 -57.3138542175293 -11.755704879760742
			vertex -34.13545608520508 -59.12434005737305 -8.134733200073242
		endloop
	endfacet
	facet normal 0.4803844298964458 -0.8320502991577067 -0.27735013824521104
		outer loop
			vertex -34.13545608520508 -59.12434005737305 -8.134733200073242
			vertex -33.090171813964844 -57.3138542175293 -11.755704879760742
			vertex 68.27091217041016 -1.672155015635616e-14 -8.134733200073242
		endloop
	endfacet
	facet normal 0.48038444237680294 -0.8320503280762973 -0.27735002987282076
		outer loop
			vertex -33.090171813964844 -57.3138542175293 -11.755704879760742
			vertex 66.18034362792969 -1.6209508575345567e-14 -11.755704879760742
			vertex 68.27091217041016 -1.672155015635616e-14 -8.134733200073242
		endloop
	endfacet
	facet normal 0.4935295559907091 0.8548182611935036 -0.16035684486085747
		outer loop
			vertex 69.56295013427734 0 -4.158233642578125
			vertex 68.27091217041016 0 -8.134733200073242
			vertex -34.78147506713867 60.243282318115234 -4.158233642578125
		endloop
	endfacet
	facet normal 0.4935294492461298 0.8548181421635593 -0.16035780790112175
		outer loop
			vertex 68.27091217041016 0 -8.134733200073242
			vertex -34.13545608520508 59.12434005737305 -8.134733200073242
			vertex -34.78147506713867 60.243282318115234 -4.158233642578125
		endloop
	endfacet
	facet normal -0.9870591079150927 0 -0.16035684420024543
		outer loop
			vertex -34.78147506713867 60.243282318115234 -4.158233642578125
			vertex -34.13545608520508 59.12434005737305 -8.134733200073242
			vertex -34.78147506713867 -60.243282318115234 -4.158233642578125
		endloop
	endfacet
	facet normal -0.9870591079150927 0 -0.16035684420024543
		outer loop
			vertex -34.13545608520508 59.12434005737305 -8.134733200073242
			vertex -34.13545608520508 -59.12434005737305 -8.134733200073242
			vertex -34.78147506713867 -60.243282318115234 -4.158233642578125
		endloop
	endfacet
	facet normal 0.4935294784963861 -0.8548181269693998 -0.16035779887368254
		outer loop
			vertex -34.78147506713867 -60.243282318115234 -4.158233642578125
			vertex -34.13545608520508 -59.12434005737305 -8.134733200073242
			vertex 69.56295013427734 -1.7038010135779838e-14 -4.158233642578125
		endloop
	endfacet
	facet normal 0.49352952820704193 -0.8548182789278809 -0.16035683583343222
		outer loop
			vertex -34.13545608520508 -59.12434005737305 -8.134733200073242
			vertex 68.27091217041016 -1.672155015635616e-14 -8.134733200073242
			vertex 69.56295013427734 -1.7038010135779838e-14 -4.158233642578125
		endloop
	endfacet
	facet normal 0.49931097918698303 0.8648320087542415 -0.052479926614277354
		outer loop
			vertex 70 0 -4.8985871985824346e-15
			vertex 69.56295013427734 0 -4.158233642578125
			vertex -35 60.62177658081055 -4.8985871985824346e-15
		endloop
	endfacet
	facet normal 0.49931100270783724 0.864832020592366 -0.05247950774369039
		outer loop
			vertex 69.56295013427734 0 -4.158233642578125
			vertex -34.78147506713867 60.243282318115234 -4.158233642578125
			vertex -35 60.62177658081055 -4.8985871985824346e-15
		endloop
	endfacet
	facet normal -0.9986219791232863 0 -0.05247992770470281
		outer loop
			vertex -35 60.62177658081055 -4.8985871985824346e-15
			vertex -34.78147506713867 60.243282318115234 -4.158233642578125
			vertex -35 -60.62177658081055 -4.8985871985824346e-15
		endloop
	endfacet
	facet normal -0.9986219791232864 0 -0.05247992770470282
		outer loop
			vertex -34.78147506713867 60.243282318115234 -4.158233642578125
			vertex -34.78147506713867 -60.243282318115234 -4.158233642578125
			vertex -35 -60.62177658081055 -4.8985871985824346e-15
		endloop
	endfacet
	facet normal 0.49931099015878794 -0.8648320277579656 -0.05247950905540565
		outer loop
			vertex -35 -60.62177658081055 -4.8985871985824346e-15
			vertex -34.78147506713867 -60.243282318115234 -4.158233642578125
			vertex 70 -1.7145054771522047e-14 -4.8985871985824346e-15
		endloop
	endfacet
	facet normal 0.4993109916670984 -0.8648320014692457 -0.05247992792599606
		outer loop
			vertex -34.78147506713867 -60.243282318115234 -4.158233642578125
			vertex 69.56295013427734 -1.7038010135779838e-14 -4.158233642578125
			vertex 70 -1.7145054771522047e-14 -4.8985871985824346e-15
		endloop
	endfacet
endsolid exported
